<svg width="720" height="540" viewBox="0 0 720 540" fill="none" xmlns="http://www.w3.org/2000/svg">
  <rect width="720" height="540" rx="32" fill="#0A1C30"/>
  <path d="M78 120C78 102.327 92.3269 88 110 88H610C627.673 88 642 102.327 642 120V420C642 437.673 627.673 452 610 452H110C92.3269 452 78 437.673 78 420V120Z" fill="#0E2945" stroke="#2D5C90" stroke-width="2"/>
  <text x="122" y="140" fill="#A5C6F1" font-family="Arial, sans-serif" font-size="20" font-weight="700">ROADIX Workflow</text>
  <g>
    <rect x="114" y="186" width="112" height="150" rx="24" fill="#14416C"/>
    <rect x="246" y="186" width="112" height="150" rx="24" fill="#164B7D"/>
    <rect x="378" y="186" width="112" height="150" rx="24" fill="#1A5A97"/>
    <rect x="510" y="186" width="112" height="150" rx="24" fill="#1E68AE"/>
    <text x="136" y="220" fill="#DCEBFF" font-family="Arial, sans-serif" font-size="18" font-weight="700">Recepción</text>
    <text x="262" y="220" fill="#DCEBFF" font-family="Arial, sans-serif" font-size="18" font-weight="700">Diagnóstico</text>
    <text x="408" y="220" fill="#DCEBFF" font-family="Arial, sans-serif" font-size="18" font-weight="700">Reparación</text>
    <text x="545" y="220" fill="#DCEBFF" font-family="Arial, sans-serif" font-size="18" font-weight="700">Entrega</text>
    <rect x="132" y="244" width="78" height="22" rx="11" fill="#FFB648"/>
    <rect x="132" y="278" width="62" height="18" rx="9" fill="#D2E5FF" fill-opacity="0.85"/>
    <rect x="132" y="306" width="70" height="18" rx="9" fill="#D2E5FF" fill-opacity="0.6"/>
    <rect x="262" y="244" width="78" height="22" rx="11" fill="#35D0A4"/>
    <rect x="262" y="278" width="62" height="18" rx="9" fill="#D2E5FF" fill-opacity="0.85"/>
    <rect x="262" y="306" width="70" height="18" rx="9" fill="#D2E5FF" fill-opacity="0.6"/>
    <rect x="394" y="244" width="78" height="22" rx="11" fill="#FFB648"/>
    <rect x="394" y="278" width="62" height="18" rx="9" fill="#D2E5FF" fill-opacity="0.85"/>
    <rect x="394" y="306" width="70" height="18" rx="9" fill="#D2E5FF" fill-opacity="0.6"/>
    <rect x="526" y="244" width="78" height="22" rx="11" fill="#35D0A4"/>
    <rect x="526" y="278" width="62" height="18" rx="9" fill="#D2E5FF" fill-opacity="0.85"/>
    <rect x="526" y="306" width="70" height="18" rx="9" fill="#D2E5FF" fill-opacity="0.6"/>
  </g>
  <path d="M226 260H246" stroke="#7DB2F7" stroke-width="6" stroke-linecap="round"/>
  <path d="M358 260H378" stroke="#7DB2F7" stroke-width="6" stroke-linecap="round"/>
  <path d="M490 260H510" stroke="#7DB2F7" stroke-width="6" stroke-linecap="round"/>
  <text x="122" y="396" fill="#8FB7E8" font-family="Arial, sans-serif" font-size="18">Visibilidad por etapa, responsable y estado.</text>
</svg>
